<svg width="99" height="20" viewBox="0 0 99 20" xmlns="http://www.w3.org/2000/svg">
    <path d="M0.015625 19H5.47656C6.20312 18.9922 6.90625 18.8789 7.58594 18.6602C8.27344 18.4414 8.87891 18.125 9.40234 17.7109C9.92578 17.3047 10.3438 16.7969 10.6562 16.1875C10.9688 15.5781 11.1211 14.875 11.1133 14.0781C11.1133 13.5703 11.0352 13.0977 10.8789 12.6602C10.7305 12.2227 10.5195 11.8281 10.2461 11.4766C9.98828 11.1562 9.66016 10.8633 9.26172 10.5977C8.86328 10.332 8.44922 10.1484 8.01953 10.0469V10.0117C8.43359 9.83203 8.78516 9.64062 9.07422 9.4375C9.37109 9.23438 9.64062 8.98438 9.88281 8.6875C10.1172 8.39844 10.3008 8.07031 10.4336 7.70312C10.5742 7.33594 10.6484 6.92969 10.6562 6.48438C10.6641 5.6875 10.5117 5.00391 10.1992 4.43359C9.88672 3.86328 9.46875 3.39453 8.94531 3.02734C8.42188 2.66016 7.82422 2.39062 7.15234 2.21875C6.48047 2.03906 5.79297 1.94531 5.08984 1.9375H0.015625V19ZM2.19531 11.0195H5.65234C6.11328 11.0352 6.54297 11.1133 6.94141 11.2539C7.33984 11.3945 7.6875 11.5938 7.98438 11.8516C8.28125 12.1172 8.51172 12.4375 8.67578 12.8125C8.84766 13.1875 8.92969 13.6172 8.92188 14.1016C8.92188 14.5781 8.82812 15.0039 8.64062 15.3789C8.46094 15.7539 8.21484 16.0703 7.90234 16.3281C7.58984 16.5859 7.23047 16.7891 6.82422 16.9375C6.41797 17.0781 5.98828 17.1523 5.53516 17.1602H2.19531V11.0195ZM2.19531 9.21484V3.78906H5.16016C5.58203 3.79688 5.99219 3.85156 6.39062 3.95312C6.79688 4.05469 7.15625 4.21094 7.46875 4.42188C7.77344 4.64062 8.01562 4.91797 8.19531 5.25391C8.38281 5.58984 8.47656 5.99609 8.47656 6.47266C8.47656 6.91797 8.38281 7.30859 8.19531 7.64453C8.00781 7.98047 7.76172 8.26172 7.45703 8.48828C7.15234 8.72266 6.80469 8.90234 6.41406 9.02734C6.02344 9.14453 5.625 9.20703 5.21875 9.21484H2.19531Z" />
    <path d="M14.793 6.32031V8.20703H19.1055V17.125H14.793V19H25.4102V17.125H21.2734V6.32031H14.793ZM18.8242 2.99219C18.8242 3.34375 18.9297 3.63672 19.1406 3.87109C19.3594 4.10547 19.6875 4.22266 20.125 4.22266C20.5547 4.22266 20.8789 4.10547 21.0977 3.87109C21.3164 3.63672 21.4258 3.34375 21.4258 2.99219C21.4258 2.79688 21.3945 2.61719 21.332 2.45312C21.2695 2.28906 21.1758 2.15234 21.0508 2.04297C20.9492 1.94141 20.8203 1.86328 20.6641 1.80859C20.5078 1.74609 20.3281 1.71484 20.125 1.71484C19.9219 1.71484 19.7383 1.74609 19.5742 1.80859C19.418 1.86328 19.2891 1.94141 19.1875 2.04297C19.0625 2.16016 18.9688 2.30078 18.9062 2.46484C18.8516 2.62891 18.8242 2.80469 18.8242 2.99219Z" />
    <path d="M28.8672 19H31.0352V9.90625C31.1836 9.63281 31.3555 9.38281 31.5508 9.15625C31.7539 8.92969 31.9727 8.73047 32.207 8.55859C32.4961 8.36328 32.8125 8.21094 33.1562 8.10156C33.5 7.98438 33.8711 7.92578 34.2695 7.92578C34.7305 7.92578 35.1367 7.98047 35.4883 8.08984C35.8477 8.19922 36.1523 8.375 36.4023 8.61719C36.6445 8.85938 36.8281 9.17578 36.9531 9.56641C37.0781 9.95703 37.1406 10.4336 37.1406 10.9961V19H39.3086V10.9492C39.3086 10.1055 39.2031 9.37891 38.9922 8.76953C38.7891 8.15234 38.4961 7.64453 38.1133 7.24609C37.7305 6.84766 37.2656 6.55469 36.7188 6.36719C36.1797 6.17969 35.5781 6.08594 34.9141 6.08594C34.4219 6.09375 33.9531 6.16797 33.5078 6.30859C33.0703 6.44141 32.6641 6.63281 32.2891 6.88281C32.0391 7.04688 31.8008 7.24219 31.5742 7.46875C31.3555 7.6875 31.1523 7.92969 30.9648 8.19531L30.8125 6.32031H28.8672V19Z" />
    <path d="M55.1182 19V16.1689H47.0059L50.4844 12.4873C51.0853 11.8695 51.6312 11.2812 52.1221 10.7227C52.613 10.1556 53.0361 9.60124 53.3916 9.05957C53.7386 8.5179 54.0052 7.97201 54.1914 7.42188C54.3861 6.86328 54.4834 6.2793 54.4834 5.66992C54.4834 4.86589 54.3564 4.13379 54.1025 3.47363C53.8486 2.80501 53.4805 2.23372 52.998 1.75977C52.5072 1.28581 51.8978 0.917643 51.1699 0.655273C50.4505 0.392904 49.6211 0.261719 48.6816 0.261719C47.6999 0.261719 46.8027 0.422526 45.9902 0.744141C45.1862 1.05729 44.5007 1.48893 43.9336 2.03906C43.3581 2.58919 42.9137 3.23242 42.6006 3.96875C42.2874 4.69661 42.1309 5.47103 42.1309 6.29199H45.6729C45.6729 5.79264 45.7363 5.34831 45.8633 4.95898C45.9902 4.56966 46.1764 4.24382 46.4219 3.98145C46.6589 3.72754 46.9551 3.53711 47.3105 3.41016C47.6745 3.27474 48.0934 3.20703 48.5674 3.20703C48.9313 3.20703 49.2614 3.26628 49.5576 3.38477C49.8623 3.50326 50.1247 3.67253 50.3447 3.89258C50.5563 4.12109 50.7214 4.39616 50.8398 4.71777C50.9583 5.03939 51.0176 5.40755 51.0176 5.82227C51.0176 6.10156 50.971 6.38932 50.8779 6.68555C50.7933 6.98177 50.6536 7.29915 50.459 7.6377C50.2559 7.9847 49.9935 8.36556 49.6719 8.78027C49.3503 9.19499 48.9567 9.65625 48.4912 10.1641L42.5117 16.5879V19H55.1182Z" />
    <path d="M58.6738 19H62.623C63.4434 18.9922 64.2051 18.8945 64.9082 18.707C65.6191 18.5195 66.2559 18.25 66.8184 17.8984C67.3496 17.5625 67.8301 17.1562 68.2598 16.6797C68.6895 16.2031 69.0449 15.6719 69.3262 15.0859C69.5996 14.5234 69.8066 13.9062 69.9473 13.2344C70.0957 12.5625 70.1699 11.8516 70.1699 11.1016V9.84766C70.1621 9.06641 70.0801 8.33203 69.9238 7.64453C69.7754 6.95703 69.5566 6.32422 69.2676 5.74609C68.9473 5.06641 68.5176 4.46875 67.9785 3.95312C67.4473 3.42969 66.834 3.00781 66.1387 2.6875C65.6387 2.45312 65.0918 2.27344 64.498 2.14844C63.9121 2.01562 63.2871 1.94531 62.623 1.9375H58.6738V19ZM60.877 3.71875H62.623C63.1621 3.72656 63.6582 3.78906 64.1113 3.90625C64.5645 4.01562 64.9746 4.17188 65.3418 4.375C65.8574 4.64844 66.291 5.00781 66.6426 5.45312C67.002 5.89062 67.2871 6.38281 67.498 6.92969C67.6621 7.35156 67.7832 7.80859 67.8613 8.30078C67.9473 8.78516 67.9941 9.29297 68.002 9.82422V11.1016C67.9941 11.625 67.9512 12.1289 67.873 12.6133C67.7949 13.0898 67.6777 13.5352 67.5215 13.9492C67.3418 14.457 67.0957 14.918 66.7832 15.332C66.4785 15.7383 66.1152 16.082 65.6934 16.3633C65.2949 16.6367 64.8379 16.8477 64.3223 16.9961C63.8145 17.1445 63.248 17.2227 62.623 17.2305H60.877V3.71875Z" />
    <path d="M78.9121 19.2344C80.1465 19.2344 81.1816 18.9883 82.0176 18.4961C82.8613 17.9961 83.4941 17.4258 83.916 16.7852L82.5918 15.7539C82.1934 16.2695 81.6934 16.6836 81.0918 16.9961C80.4902 17.3086 79.8027 17.4648 79.0293 17.4648C78.4434 17.4648 77.9082 17.3555 77.4238 17.1367C76.9395 16.918 76.5254 16.6172 76.1816 16.2344C75.8457 15.875 75.5801 15.4609 75.3848 14.9922C75.1973 14.5234 75.0762 13.9805 75.0215 13.3633V13.2812H84.0801V12.3086C84.0801 11.4258 83.9668 10.6055 83.7402 9.84766C83.5215 9.08984 83.1855 8.42969 82.7324 7.86719C82.2793 7.3125 81.709 6.87891 81.0215 6.56641C80.3418 6.24609 79.5449 6.08594 78.6309 6.08594C77.9043 6.08594 77.1934 6.23438 76.498 6.53125C75.8105 6.82812 75.1973 7.25391 74.6582 7.80859C74.1113 8.37109 73.6738 9.05859 73.3457 9.87109C73.0176 10.6758 72.8535 11.5898 72.8535 12.6133V13.1055C72.8535 13.9883 73.002 14.8047 73.2988 15.5547C73.5957 16.3047 74.0098 16.9531 74.541 17.5C75.0723 18.0469 75.709 18.4727 76.4512 18.7773C77.2012 19.082 78.0215 19.2344 78.9121 19.2344ZM78.6309 7.86719C79.1855 7.86719 79.6621 7.96875 80.0605 8.17188C80.4668 8.375 80.8027 8.64062 81.0684 8.96875C81.334 9.29688 81.541 9.6875 81.6895 10.1406C81.8379 10.5859 81.9121 11.0039 81.9121 11.3945V11.5H75.0918C75.1777 10.9141 75.3262 10.3984 75.5371 9.95312C75.7559 9.5 76.0215 9.11719 76.334 8.80469C76.6465 8.5 76.998 8.26953 77.3887 8.11328C77.7793 7.94922 78.1934 7.86719 78.6309 7.86719Z" />
    <path d="M93.127 17.4766C92.4473 17.4766 91.877 17.3438 91.416 17.0781C90.9629 16.8047 90.5996 16.4492 90.3262 16.0117C90.0449 15.582 89.8418 15.0977 89.7168 14.5586C89.5996 14.0117 89.541 13.4609 89.541 12.9062V12.4141C89.541 11.8672 89.5996 11.3242 89.7168 10.7852C89.8418 10.2461 90.0449 9.75781 90.3262 9.32031C90.6074 8.89062 90.9746 8.54297 91.4277 8.27734C91.8887 8.00391 92.4551 7.86719 93.127 7.86719C93.5645 7.86719 93.9707 7.94141 94.3457 8.08984C94.7285 8.23828 95.0566 8.44141 95.3301 8.69922C95.6035 8.95703 95.8184 9.25781 95.9746 9.60156C96.1387 9.9375 96.2246 10.2969 96.2324 10.6797H98.2832C98.2832 10.0391 98.1543 9.4375 97.8965 8.875C97.6387 8.3125 97.2832 7.82422 96.8301 7.41016C96.3691 7.00391 95.8223 6.68359 95.1895 6.44922C94.5645 6.20703 93.877 6.08594 93.127 6.08594C92.166 6.08594 91.3262 6.25781 90.6074 6.60156C89.8887 6.94531 89.291 7.40625 88.8145 7.98438C88.3301 8.57031 87.9668 9.24609 87.7246 10.0117C87.4824 10.7773 87.3613 11.5781 87.3613 12.4141V12.9062C87.3613 13.75 87.4824 14.5547 87.7246 15.3203C87.9668 16.0781 88.3301 16.7461 88.8145 17.3242C89.291 17.9102 89.8887 18.375 90.6074 18.7188C91.3262 19.0625 92.166 19.2344 93.127 19.2344C93.7988 19.2344 94.4434 19.1211 95.0605 18.8945C95.6777 18.6602 96.2246 18.3477 96.7012 17.957C97.1777 17.5742 97.5566 17.1289 97.8379 16.6211C98.127 16.1055 98.2754 15.5664 98.2832 15.0039H96.2324C96.2246 15.3555 96.1309 15.6836 95.9512 15.9883C95.7793 16.2852 95.5488 16.543 95.2598 16.7617C94.9707 16.9883 94.6387 17.1641 94.2637 17.2891C93.8965 17.4141 93.5176 17.4766 93.127 17.4766Z" />
</svg>
